<?xml version="1.0" encoding="UTF-8" standalone="no"?>
<!-- Created with Inkscape (http://www.inkscape.org/) -->

<svg
   width="8.4666662mm"
   height="8.4666662mm"
   viewBox="0 0 8.4666663 8.4666662"
   version="1.1"
   id="svg1"
   xml:space="preserve"
   inkscape:version="1.3 (0e150ed6c4, 2023-07-21)"
   sodipodi:docname="favicon.svg"
   xmlns:inkscape="http://www.inkscape.org/namespaces/inkscape"
   xmlns:sodipodi="http://sodipodi.sourceforge.net/DTD/sodipodi-0.dtd"
   xmlns="http://www.w3.org/2000/svg"
   xmlns:svg="http://www.w3.org/2000/svg"><sodipodi:namedview
     id="namedview1"
     pagecolor="#ffffff"
     bordercolor="#666666"
     borderopacity="1.0"
     inkscape:showpageshadow="2"
     inkscape:pageopacity="0.0"
     inkscape:pagecheckerboard="0"
     inkscape:deskcolor="#d1d1d1"
     inkscape:document-units="mm"
     inkscape:zoom="32"
     inkscape:cx="4.03125"
     inkscape:cy="18.625"
     inkscape:window-width="3788"
     inkscape:window-height="2120"
     inkscape:window-x="52"
     inkscape:window-y="0"
     inkscape:window-maximized="1"
     inkscape:current-layer="layer1" /><defs
     id="defs1" /><g
     inkscape:label="圖層 1"
     inkscape:groupmode="layer"
     id="layer1"
     transform="translate(-76.561979,-39.782152)"><path
       style="fill:#c5bcab;fill-opacity:1;stroke:#28170b;stroke-width:0.0727273;stroke-linecap:butt;stroke-linejoin:miter;stroke-dasharray:none;stroke-opacity:1"
       d="m 79.071601,46.78251 c -0.872345,-0.56504 -1.090431,-1.467123 -1.159821,-2.379118 -0.0694,-0.911996 -0.400487,-0.712366 -0.537004,-0.733563 -0.136509,-0.02119 -0.569456,-0.274385 -0.716657,-0.429701 -0.04228,-0.04463 0,-0.465414 0,-0.465414 0,0 0.353923,-0.195016 1.205582,-0.300159 0,0 0.03856,-0.287392 0.690441,-0.480154 0,0 0.150705,0.007 0.679926,-0.413564 0,0 0.553755,-0.55025 1.56313,-0.434592 0,0 0.543241,0.05607 0.739507,0.182249 0,0 0.267987,0.0408 0.469639,0.02454 0.217296,-0.01753 0.641373,0.03856 0.991852,0.417068 0,0 0.332953,0.33646 0.385526,0.32945 0.05257,-0.007 1.495291,-0.08061 1.604563,-0.05257 l 3e-6,1.966177 c 0,0 -0.22719,0.250636 -0.879077,0.32244 0,0 -0.07511,1.054938 -0.211803,1.559624 0,0 -0.122662,0.529222 -0.771052,0.665909 0,0 -1.118023,0.266362 -1.493033,0.53623 0,0 -1.373335,0.596987 -2.561722,-0.314843 z"
       id="path1"
       sodipodi:nodetypes="cszsccccccscscccccccc" /><path
       style="fill:#462e20;fill-opacity:1;stroke:none;stroke-width:0.0330279px;stroke-linecap:butt;stroke-linejoin:miter;stroke-opacity:1"
       d="m 79.632933,46.945347 c -0.544448,-0.221867 -0.856528,-0.758396 -0.879998,-1.273984 -0.01135,-0.249182 0.132276,-0.634291 0.367598,-0.651807 0.212995,-0.01586 0.354488,0.404819 0.663933,0.262736 0.309445,-0.14208 0.649842,-0.04087 0.788208,0.105091 0.138371,0.145965 0.417461,-0.0759 0.417461,-0.0759 0,0 0.443731,-0.493362 0.613051,0.221866 0.169318,0.715226 -0.207917,1.260221 -0.499201,1.345793 -0.291283,0.08557 -0.926602,0.288067 -1.471052,0.0662 z"
       id="path12"
       sodipodi:nodetypes="zassscssz" /><path
       id="path2"
       style="fill:#2a1a13;fill-opacity:1;stroke:none;stroke-width:0.0330279px;stroke-linecap:butt;stroke-linejoin:miter;stroke-opacity:1"
       d="m 78.638389,41.970635 c -0.05983,0.02391 -0.08425,0.02374 -0.08425,0.02374 -0.651887,0.192763 -0.690428,0.480197 -0.690428,0.480197 -0.851659,0.105149 -1.28977,0.271512 -1.28977,0.271512 0,0 -0.01193,0.387733 0,0.465426 0.03257,0.211497 0.664285,0.437127 0.800802,0.458327 0.122123,0.01897 0.399413,-0.13632 0.506321,0.483036 l 0.001,6.4e-5 -0.002,-0.0112 c 0,0 0.258955,-0.612215 0.25545,-0.92414 -0.0035,-0.311924 0.469641,-0.693942 0.497679,-0.911238 0.02804,-0.217296 0.006,-0.335635 0.006,-0.335635 z"
       sodipodi:nodetypes="ccccssccccccc" /><path
       id="path3"
       style="fill:#2a1a13;fill-opacity:1;stroke:none;stroke-width:0.0330279px;stroke-linecap:butt;stroke-linejoin:miter;stroke-opacity:1"
       d="m 80.797211,41.146225 c 0,0 -0.495678,0.146526 -0.495678,0.70449 0,0.606326 0.136698,2.358989 0.136698,2.358989 0,0 0.546729,-1.290071 1.082958,-1.749195 0.194982,-0.166946 0.646637,-0.634333 0.634371,-0.746486 -0.0083,-0.07572 -0.02636,-0.253126 -0.0856,-0.362857 -0.02205,2.37e-4 -0.04454,3.37e-4 -0.06361,0.0019 -0.201652,0.01626 -0.469619,-0.02451 -0.469619,-0.02451 -0.196266,-0.126167 -0.739517,-0.1823 -0.739517,-0.1823 z" /><path
       id="path4"
       style="fill:#2a1a13;fill-opacity:1;stroke:none;stroke-width:0.0330279px;stroke-linecap:butt;stroke-linejoin:miter;stroke-opacity:1"
       d="m 84.890107,42.040884 c -0.26443,-0.0035 -0.826429,0.02336 -1.172043,0.04173 -0.03447,0.01236 -0.221507,0.101978 -0.1992,0.595344 0.02454,0.542615 -0.08061,0.875568 0.466133,0.928138 0.494082,0.04751 0.924291,-0.431181 1.003291,-0.524641 v -1.034514 c -0.01367,-0.0035 -0.04818,-0.0054 -0.09818,-0.0061 z" /><path
       style="fill:#a8736e;fill-opacity:1;stroke:none;stroke-width:0.0330279px;stroke-linecap:butt;stroke-linejoin:miter;stroke-opacity:1"
       d="m 79.705695,46.886574 c 0,0 -0.259352,0.02103 -0.368,-0.133178 -0.108654,-0.154209 -0.206782,-0.290896 -0.206782,-0.290896 0,0 -0.0946,-0.329449 0.287415,-0.581792 0.382021,-0.252345 0.482967,-0.392535 0.753528,-0.24183 0.27056,0.150706 0.596368,0.411936 0.70093,0.606326 0.09568,0.177866 0.259355,0.732497 -0.434592,0.760537 0,0 -0.318933,-0.01047 -0.424077,-0.108655"
       id="path5"
       sodipodi:nodetypes="csczzscc" /><path
       style="fill:#462e20;fill-opacity:1;stroke:none;stroke-width:0.0330279px;stroke-linecap:butt;stroke-linejoin:miter;stroke-opacity:1"
       d="m 82.010981,45.29066 c 0,0 -0.347396,-0.262736 -0.414538,-0.361993 -0.05713,-0.08445 -0.291054,-0.446744 0.157642,-1.050945 0.483453,-0.651002 1.310328,-0.249322 1.310328,-0.249322 0,0 0.575536,0.397992 0.400378,0.916273 -0.175158,0.518282 -0.426333,0.794873 -0.78821,0.874436 -0.281123,0.0618 -0.449572,-0.01751 -0.6656,-0.128449 z"
       id="path10"
       sodipodi:nodetypes="csscssc" /><g
       id="g7"
       transform="matrix(0.12483037,0,0,0.12483037,66.969337,34.809137)"><circle
         style="fill:#1a1a1a;fill-opacity:1;stroke:none;stroke-width:0.15"
         id="path6"
         cx="124.46883"
         cy="77.990128"
         r="4.6772165" /><path
         style="fill:#ffffff;stroke:none;stroke-width:0.264583px;stroke-linecap:butt;stroke-linejoin:miter;stroke-opacity:1"
         d="m 120.99959,76.186147 0.29787,2.323358 2.62637,-1.675674 z"
         id="path7"
         sodipodi:nodetypes="cccc" /></g><path
       style="fill:#462e20;fill-opacity:1;stroke:none;stroke-width:0.0330279px;stroke-linecap:butt;stroke-linejoin:miter;stroke-opacity:1"
       d="m 79.120533,44.753901 c 0.235869,-0.161327 0.256111,-0.651003 0.256111,-0.777382 0,-0.126386 0.0015,-0.526191 -0.2999,-0.679346 -0.275747,-0.140131 -0.520422,0.0087 -0.660548,0.116771 -0.140131,0.108015 -0.185581,0.365032 -0.251059,0.867032 -0.06131,0.470005 0.341139,0.666241 0.341139,0.666241 0.03529,0.05791 0.378388,-0.03198 0.614257,-0.193316 z"
       id="path11"
       sodipodi:nodetypes="zsssscz" /><g
       id="g9"
       transform="matrix(0.12483037,0,0,0.12483037,66.983363,34.81613)"><ellipse
         style="fill:#1a1a1a;fill-opacity:1;stroke:none;stroke-width:0.15"
         id="path8"
         cx="94.588531"
         cy="74.795952"
         rx="3.4726562"
         ry="4.202004" /><path
         style="fill:#ffffff;stroke:none;stroke-width:0.264583px;stroke-linecap:butt;stroke-linejoin:miter;stroke-opacity:1"
         d="m 97.399738,74.795951 c 0,0 0.661459,-0.712619 -0.529166,-1.208712 -1.190625,-0.496094 -1.785938,0.06615 -1.785938,0.06615 0,0 -0.463021,0.687814 -0.132291,1.142565 z"
         id="path9"
         sodipodi:nodetypes="csccc" /></g></g></svg>
